<svg xmlns="http://www.w3.org/2000/svg" viewBox="0 0 640 360" role="img" aria-labelledby="title desc">
  <title id="title">熱海市をイメージしたビジュアル</title>
  <desc id="desc">海と坂道の温泉街をテーマにしたDROPTRIP用の旅先固定heroイラストです。</desc>
  <defs>
    <linearGradient id="sky" x1="0" y1="0" x2="1" y2="1">
      <stop offset="0%" stop-color="#79b6c9"/>
      <stop offset="58%" stop-color="#fff2d9"/>
      <stop offset="100%" stop-color="#fffaf1"/>
    </linearGradient>
    <style>
      :root { --bg:#79b6c9; --light:#fff2d9; --accent:#e08a75; --dark:#766a8a; }
      text { font-family: "Yu Gothic", "Hiragino Sans", "Noto Sans JP", sans-serif; }
    </style>
  </defs>
  <rect width="640" height="360" rx="0" fill="url(#sky)"/>
  <circle cx="92" cy="80" r="74" fill="#fff8ed" opacity=".36"/>
  <circle cx="582" cy="278" r="94" fill="#e08a75" opacity=".11"/>
  <path d="M0 284 C88 270 126 300 205 284 C285 267 340 298 420 281 C510 262 560 293 640 275 L640 360 L0 360 Z" fill="#5fa6bd" opacity=".64"/>
<path d="M90 324 L565 210" stroke="#eecaa8" stroke-width="34" stroke-linecap="round" opacity=".58"/><path d="M96 326 L565 214" stroke="#f9f1e6" stroke-width="7" stroke-linecap="round" opacity=".7"/>
<g opacity=".82"><rect x="92" y="212" width="72" height="70" rx="4" fill="#fff2d9"/><rect x="184" y="190" width="90" height="92" rx="5" fill="#d8a479"/><rect x="296" y="220" width="72" height="62" rx="4" fill="#f4d8b8"/><path d="M80 212 L128 170 L176 212 Z" fill="var(--accent)"/><path d="M172 190 L229 150 L286 190 Z" fill="var(--dark)"/><path d="M286 220 L332 184 L378 220 Z" fill="var(--accent)"/></g>
<circle cx="524" cy="90" r="42" fill="#f5b45d" opacity=".65"/>
  <rect x="34" y="34" width="230" height="82" rx="24" fill="#fffaf1" opacity=".82"/>
  <text x="58" y="72" font-size="25" font-weight="700" fill="#766a8a">熱海市</text>
  <text x="58" y="98" font-size="15" font-weight="600" fill="#766a8a" opacity=".72">海と坂道の温泉街</text>
</svg>
