<svg xmlns="http://www.w3.org/2000/svg" viewBox="0 0 640 360" role="img" aria-labelledby="title desc">
  <title id="title">広島市をイメージしたビジュアル</title>
  <desc id="desc">原爆ドーム風の建築シルエット、川と橋、路面電車を組み合わせたDROPTRIP用の旅先固定heroイラストです。</desc>
  <defs>
    <linearGradient id="hiroshima-sky" x1="0" y1="0" x2="1" y2="1">
      <stop offset="0%" stop-color="#9bb7bd"/>
      <stop offset="58%" stop-color="#f0dfc6"/>
      <stop offset="100%" stop-color="#fff8ea"/>
    </linearGradient>
    <linearGradient id="hiroshima-river" x1="0" y1="0" x2="1" y2="0">
      <stop offset="0%" stop-color="#79aab7"/>
      <stop offset="100%" stop-color="#5f8fa2"/>
    </linearGradient>
  </defs>
  <rect width="640" height="360" fill="url(#hiroshima-sky)"/>
  <circle cx="92" cy="78" r="72" fill="#fff4df" opacity=".36"/>
  <path d="M0 290 C105 258 176 320 282 287 C406 249 496 316 640 272 L640 360 L0 360 Z" fill="url(#hiroshima-river)" opacity=".78"/>
  <path d="M0 296 C122 266 188 326 292 293 C408 258 508 320 640 286" fill="none" stroke="#e7f0ec" stroke-width="7" opacity=".62"/>
  <g opacity=".84" fill="none" stroke="#7d756b" stroke-width="8" stroke-linecap="round">
    <path d="M260 252 C338 218 418 218 505 252"/>
    <path d="M287 242 L287 276 M331 231 L331 285 M376 228 L376 290 M423 232 L423 284 M470 243 L470 276"/>
  </g>
  <g transform="translate(94 112)" opacity=".95">
    <rect x="28" y="91" width="142" height="74" rx="3" fill="#cdb990"/>
    <rect x="52" y="66" width="95" height="25" rx="2" fill="#b9a07a"/>
    <rect x="64" y="42" width="70" height="26" rx="3" fill="#d7c6a4"/>
    <path d="M70 42 C74 16 124 16 128 42" fill="none" stroke="#82796c" stroke-width="9"/>
    <path d="M82 41 C86 28 113 28 117 41" fill="none" stroke="#f4ead5" stroke-width="7"/>
    <path d="M99 10 L99 27" stroke="#746d63" stroke-width="6" stroke-linecap="round"/>
    <rect x="54" y="105" width="18" height="60" fill="#927f64"/>
    <rect x="91" y="105" width="18" height="60" fill="#927f64"/>
    <rect x="128" y="105" width="18" height="60" fill="#927f64"/>
    <path d="M18 91 L180 91" stroke="#776f66" stroke-width="8" stroke-linecap="round"/>
    <path d="M16 165 L183 165" stroke="#776f66" stroke-width="8" stroke-linecap="round"/>
  </g>
  <g transform="translate(386 210)" opacity=".95">
    <rect x="0" y="0" width="164" height="58" rx="14" fill="#7ab0a8"/>
    <rect x="16" y="13" width="32" height="18" rx="4" fill="#fff0d9"/>
    <rect x="58" y="13" width="32" height="18" rx="4" fill="#fff0d9"/>
    <rect x="100" y="13" width="32" height="18" rx="4" fill="#fff0d9"/>
    <path d="M18 44 L145 44" stroke="#4f6262" stroke-width="5" stroke-linecap="round"/>
    <circle cx="42" cy="58" r="8" fill="#4f5557"/>
    <circle cx="122" cy="58" r="8" fill="#4f5557"/>
    <path d="M25 -9 L136 -9" stroke="#6c6b64" stroke-width="5" stroke-linecap="round"/>
    <path d="M64 -9 L44 0 M104 -9 L84 0" stroke="#6c6b64" stroke-width="4" stroke-linecap="round"/>
  </g>
  <g opacity=".72">
    <rect x="520" y="148" width="42" height="92" rx="4" fill="#d8bc8e"/>
    <rect x="570" y="176" width="34" height="64" rx="4" fill="#b8c8c4"/>
    <rect x="486" y="190" width="28" height="50" rx="4" fill="#e3c99d"/>
  </g>
</svg>
