<svg xmlns="http://www.w3.org/2000/svg" viewBox="0 0 640 360" role="img" aria-labelledby="title desc">
  <title id="title">別府市をイメージしたビジュアル</title>
  <desc id="desc">湯けむりと地獄めぐりをテーマにしたDROPTRIP用の旅先固定heroイラストです。</desc>
  <defs>
    <linearGradient id="sky" x1="0" y1="0" x2="1" y2="1">
      <stop offset="0%" stop-color="#86b7b3"/>
      <stop offset="58%" stop-color="#f6e5cf"/>
      <stop offset="100%" stop-color="#fffaf1"/>
    </linearGradient>
    <style>
      :root { --bg:#86b7b3; --light:#f6e5cf; --accent:#d96d5c; --dark:#6b737a; }
      text { font-family: "Yu Gothic", "Hiragino Sans", "Noto Sans JP", sans-serif; }
    </style>
  </defs>
  <rect width="640" height="360" rx="0" fill="url(#sky)"/>
  <circle cx="92" cy="80" r="74" fill="#fff8ed" opacity=".36"/>
  <circle cx="582" cy="278" r="94" fill="#d96d5c" opacity=".11"/>
  <g fill="none" stroke="#fff8f2" stroke-width="10" stroke-linecap="round" opacity=".78"><path d="M138 210 C110 176 158 160 136 125"/><path d="M203 211 C174 178 226 157 198 120"/><path d="M468 216 C442 184 490 162 466 129"/></g>
<ellipse cx="190" cy="278" rx="108" ry="45" fill="#61a5aa" opacity=".6"/><path d="M116 277 C158 257 214 296 266 270" fill="none" stroke="#fff5ea" stroke-width="8" opacity=".78"/>
<path d="M90 324 L565 210" stroke="#eecaa8" stroke-width="34" stroke-linecap="round" opacity=".58"/><path d="M96 326 L565 214" stroke="#f9f1e6" stroke-width="7" stroke-linecap="round" opacity=".7"/>
<g opacity=".82"><rect x="92" y="212" width="72" height="70" rx="4" fill="#fff2d9"/><rect x="184" y="190" width="90" height="92" rx="5" fill="#d8a479"/><rect x="296" y="220" width="72" height="62" rx="4" fill="#f4d8b8"/><path d="M80 212 L128 170 L176 212 Z" fill="var(--accent)"/><path d="M172 190 L229 150 L286 190 Z" fill="var(--dark)"/><path d="M286 220 L332 184 L378 220 Z" fill="var(--accent)"/></g>
  <rect x="34" y="34" width="230" height="82" rx="24" fill="#fffaf1" opacity=".82"/>
  <text x="58" y="72" font-size="25" font-weight="700" fill="#6b737a">別府市</text>
  <text x="58" y="98" font-size="15" font-weight="600" fill="#6b737a" opacity=".72">湯けむりと地獄めぐり</text>
</svg>
