<svg xmlns="http://www.w3.org/2000/svg" viewBox="0 0 640 360" role="img" aria-labelledby="title desc">
  <title id="title">金沢市をイメージしたビジュアル</title>
  <desc id="desc">庭園と茶屋街をテーマにしたDROPTRIP用の旅先固定heroイラストです。</desc>
  <defs>
    <linearGradient id="sky" x1="0" y1="0" x2="1" y2="1">
      <stop offset="0%" stop-color="#93a678"/>
      <stop offset="58%" stop-color="#f2eadb"/>
      <stop offset="100%" stop-color="#fffaf1"/>
    </linearGradient>
    <style>
      :root { --bg:#93a678; --light:#f2eadb; --accent:#8b5d4b; --dark:#d4af5f; }
      text { font-family: "Yu Gothic", "Hiragino Sans", "Noto Sans JP", sans-serif; }
    </style>
  </defs>
  <rect width="640" height="360" rx="0" fill="url(#sky)"/>
  <circle cx="92" cy="80" r="74" fill="#fff8ed" opacity=".36"/>
  <circle cx="582" cy="278" r="94" fill="#8b5d4b" opacity=".11"/>
  <g opacity=".84"><ellipse cx="160" cy="275" rx="92" ry="35" fill="#6f9965"/><ellipse cx="335" cy="282" rx="130" ry="42" fill="#7da874"/><path d="M420 220 C460 180 515 180 548 222 C516 232 455 232 420 220 Z" fill="#6f9965"/></g>
<g opacity=".82"><rect x="92" y="212" width="72" height="70" rx="4" fill="#fff2d9"/><rect x="184" y="190" width="90" height="92" rx="5" fill="#d8a479"/><rect x="296" y="220" width="72" height="62" rx="4" fill="#f4d8b8"/><path d="M80 212 L128 170 L176 212 Z" fill="var(--accent)"/><path d="M172 190 L229 150 L286 190 Z" fill="var(--dark)"/><path d="M286 220 L332 184 L378 220 Z" fill="var(--accent)"/></g>
<g stroke="#e4eef1" stroke-width="5" stroke-linecap="round" opacity=".55"><path d="M105 90 L82 126"/><path d="M174 72 L150 110"/><path d="M468 72 L446 108"/><path d="M540 116 L516 154"/></g>
<circle cx="520" cy="112" r="18" fill="#d4af5f" opacity=".9"/><circle cx="552" cy="148" r="10" fill="#d4af5f" opacity=".75"/>
  <rect x="34" y="34" width="230" height="82" rx="24" fill="#fffaf1" opacity=".82"/>
  <text x="58" y="72" font-size="25" font-weight="700" fill="#d4af5f">金沢市</text>
  <text x="58" y="98" font-size="15" font-weight="600" fill="#d4af5f" opacity=".72">庭園と茶屋街</text>
</svg>
