<svg xmlns="http://www.w3.org/2000/svg" viewBox="0 0 640 360" role="img" aria-labelledby="title desc">
  <title id="title">甲府市をイメージしたビジュアル</title>
  <desc id="desc">城跡とぶどう畑をテーマにしたDROPTRIP用の旅先固定heroイラストです。</desc>
  <defs>
    <linearGradient id="sky" x1="0" y1="0" x2="1" y2="1">
      <stop offset="0%" stop-color="#7a8f62"/>
      <stop offset="58%" stop-color="#f4e7c4"/>
      <stop offset="100%" stop-color="#fffaf1"/>
    </linearGradient>
    <style>
      :root { --bg:#7a8f62; --light:#f4e7c4; --accent:#7d4b73; --dark:#6d8db1; }
    </style>
  </defs>
  <rect width="640" height="360" rx="0" fill="url(#sky)"/>
  <circle cx="92" cy="80" r="74" fill="#fff8ed" opacity=".36"/>
  <circle cx="582" cy="278" r="94" fill="#7d4b73" opacity=".11"/>
  <g opacity=".9"><rect x="388" y="196" width="116" height="90" rx="4" fill="#f1e5cd"/><path d="M370 196 L446 142 L522 196 Z" fill="#5c6070"/><rect x="422" y="225" width="34" height="61" fill="#7c5e52"/><path d="M402 178 L446 142 L490 178" fill="none" stroke="#f6efe4" stroke-width="9"/></g>
<g opacity=".9"><circle cx="458" cy="214" r="15" fill="#744071"/><circle cx="488" cy="214" r="15" fill="#875084"/><circle cx="474" cy="240" r="15" fill="#6f396d"/><circle cx="506" cy="240" r="15" fill="#81467f"/><path d="M474 198 C486 176 512 172 532 184" fill="none" stroke="#6f8b57" stroke-width="7" stroke-linecap="round"/></g>
<path d="M0 280 C80 190 120 210 190 150 C260 95 325 205 390 155 C470 90 560 190 640 125 L640 360 L0 360 Z" fill="var(--dark)" opacity=".18"/>
<g stroke="#6f8b57" stroke-width="7" opacity=".62"><path d="M86 288 C188 256 306 256 424 288"/><path d="M74 318 C210 288 374 292 520 318"/></g>
</svg>
