<svg xmlns="http://www.w3.org/2000/svg" viewBox="0 0 640 360" role="img" aria-labelledby="title desc">
  <title>高山市の旅先イメージ</title>
  <desc>高山市の古い町並み、飛騨の山並み、朝市をイメージしたビジュアル</desc>
  <title id="title">高山市をイメージしたビジュアル</title>
  <desc id="desc">古い町並みと山並みをテーマにしたDROPTRIP用の旅先固定heroイラストです。</desc>
  <defs>
    <linearGradient id="sky" x1="0" y1="0" x2="1" y2="1">
      <stop offset="0%" stop-color="#c59b70"/>
      <stop offset="58%" stop-color="#f2e3c8"/>
      <stop offset="100%" stop-color="#fffaf1"/>
    </linearGradient>
    <style>:root { --bg:#c59b70; --light:#f2e3c8; --accent:#8b5c48; --dark:#657b5d; }</style>
  </defs>
  <rect width="640" height="360" fill="url(#sky)"/>
  <circle cx="92" cy="80" r="74" fill="#fff8ed" opacity=".36"/>
  <circle cx="582" cy="278" r="94" fill="#8b5c48" opacity=".11"/>
  <path d="M0 280 C78 198 126 210 190 150 C260 86 328 207 392 154 C470 94 556 190 640 124 L640 360 L0 360 Z" fill="var(--dark)" opacity=".18"/>
<g opacity=".85"><rect x="100" y="215" width="82" height="70" rx="5" fill="#f3dec2"/><rect x="205" y="190" width="100" height="95" rx="5" fill="#d7a477"/><rect x="332" y="220" width="78" height="65" rx="5" fill="#ecd0aa"/><path d="M88 215 L141 176 L194 215 Z" fill="var(--accent)"/><path d="M192 190 L255 150 L318 190 Z" fill="var(--dark)"/><path d="M320 220 L371 184 L422 220 Z" fill="var(--accent)"/></g>
<path d="M194 360 C238 302 295 260 405 214" fill="none" stroke="#efd0aa" stroke-width="36" opacity=".52"/>
<g opacity=".8"><circle cx="150" cy="248" r="20" fill="#d68a79"/><circle cx="192" cy="248" r="20" fill="#e0b45f"/><path d="M124 286 L220 286" stroke="#684d3c" stroke-width="8" stroke-linecap="round"/></g>
</svg>
