<svg xmlns="http://www.w3.org/2000/svg" viewBox="0 0 640 360" role="img" aria-labelledby="title desc">
  <title>銀山温泉の旅先イメージ</title>
  <desc>銀山温泉の木造旅館街、雪景色、ガス灯、大正ロマンをイメージしたビジュアル</desc>
  <title id="title">銀山温泉をイメージしたビジュアル</title>
  <desc id="desc">雪とガス灯の温泉街をテーマにしたDROPTRIP用の旅先固定heroイラストです。</desc>
  <defs>
    <linearGradient id="sky" x1="0" y1="0" x2="1" y2="1">
      <stop offset="0%" stop-color="#c7d6df"/>
      <stop offset="58%" stop-color="#f5ead8"/>
      <stop offset="100%" stop-color="#fffaf1"/>
    </linearGradient>
    <style>:root { --bg:#c7d6df; --light:#f5ead8; --accent:#8b6d5c; --dark:#4f5d6d; }</style>
  </defs>
  <rect width="640" height="360" fill="url(#sky)"/>
  <circle cx="92" cy="80" r="74" fill="#fff8ed" opacity=".36"/>
  <circle cx="582" cy="278" r="94" fill="#8b6d5c" opacity=".11"/>
  <g fill="#ffffff" opacity=".8"><circle cx="118" cy="92" r="5"/><circle cx="208" cy="132" r="4"/><circle cx="430" cy="88" r="5"/><circle cx="538" cy="142" r="4"/><circle cx="330" cy="70" r="3"/></g>
<g opacity=".85"><rect x="100" y="215" width="82" height="70" rx="5" fill="#f3dec2"/><rect x="205" y="190" width="100" height="95" rx="5" fill="#d7a477"/><rect x="332" y="220" width="78" height="65" rx="5" fill="#ecd0aa"/><path d="M88 215 L141 176 L194 215 Z" fill="var(--accent)"/><path d="M192 190 L255 150 L318 190 Z" fill="var(--dark)"/><path d="M320 220 L371 184 L422 220 Z" fill="var(--accent)"/></g>
<g opacity=".86"><path d="M492 150 L492 286" stroke="#4c4e57" stroke-width="8"/><rect x="476" y="121" width="32" height="36" rx="8" fill="#f5d78b"/><path d="M468 122 L516 122" stroke="#4c4e57" stroke-width="6" stroke-linecap="round"/></g>
<path d="M0 315 C105 275 170 350 275 310 C400 262 475 335 640 292 L640 360 L0 360 Z" fill="#6fa8b8" opacity=".55"/>
</svg>
