<svg xmlns="http://www.w3.org/2000/svg" viewBox="0 0 640 360" role="img" aria-labelledby="title desc">
  <title>函館市の旅先イメージ</title>
  <desc>函館市の夜景、赤レンガ倉庫、港町、坂道をイメージしたビジュアル</desc>
  <title id="title">函館市をイメージしたビジュアル</title>
  <desc id="desc">夜景と赤レンガ倉庫をテーマにしたDROPTRIP用の旅先固定heroイラストです。</desc>
  <defs>
    <linearGradient id="sky" x1="0" y1="0" x2="1" y2="1">
      <stop offset="0%" stop-color="#253f5d"/>
      <stop offset="58%" stop-color="#f2dbb3"/>
      <stop offset="100%" stop-color="#fffaf1"/>
    </linearGradient>
    <style>:root { --bg:#253f5d; --light:#f2dbb3; --accent:#b5634f; --dark:#566879; }</style>
  </defs>
  <rect width="640" height="360" fill="url(#sky)"/>
  <circle cx="92" cy="80" r="74" fill="#fff8ed" opacity=".36"/>
  <circle cx="582" cy="278" r="94" fill="#b5634f" opacity=".11"/>
  <circle cx="532" cy="88" r="36" fill="#f4d58a" opacity=".84"/>
<g opacity=".9"><rect x="130" y="203" width="120" height="82" rx="4" fill="#b06552"/><rect x="280" y="188" width="128" height="97" rx="4" fill="#d59b70"/><path d="M116 203 L190 160 L264 203 Z" fill="#59616b"/><path d="M266 188 L344 144 L422 188 Z" fill="#59616b"/></g>
<path d="M82 322 L568 204" stroke="#edc7a4" stroke-width="36" stroke-linecap="round" opacity=".56"/><path d="M96 324 L558 211" stroke="#fff2e2" stroke-width="7" stroke-linecap="round" opacity=".75"/>
<path d="M0 282 C86 260 138 302 224 280 C312 258 382 306 470 278 C542 254 588 274 640 260 L640 360 L0 360 Z" fill="#61a8bf" opacity=".62"/>
</svg>
