<svg xmlns="http://www.w3.org/2000/svg" viewBox="0 0 640 360" role="img" aria-labelledby="title desc">
  <title>石垣市の旅先イメージ</title>
  <desc>石垣市の青い海、白い砂浜、川平湾の雰囲気をイメージしたビジュアル</desc>
  <title id="title">石垣市をイメージしたビジュアル</title>
  <desc id="desc">川平湾と南国の海をテーマにしたDROPTRIP用の旅先固定heroイラストです。</desc>
  <defs>
    <linearGradient id="sky" x1="0" y1="0" x2="1" y2="1">
      <stop offset="0%" stop-color="#83c8d8"/>
      <stop offset="58%" stop-color="#f6efd9"/>
      <stop offset="100%" stop-color="#fffaf1"/>
    </linearGradient>
    <style>:root { --bg:#83c8d8; --light:#f6efd9; --accent:#4f9c9a; --dark:#467783; }</style>
  </defs>
  <rect width="640" height="360" fill="url(#sky)"/>
  <circle cx="92" cy="80" r="74" fill="#fff8ed" opacity=".36"/>
  <circle cx="582" cy="278" r="94" fill="#4f9c9a" opacity=".11"/>
  <path d="M0 282 C86 260 138 302 224 280 C312 258 382 306 470 278 C542 254 588 274 640 260 L640 360 L0 360 Z" fill="#61a8bf" opacity=".62"/>
<path d="M0 315 C142 292 268 330 410 306 C505 290 582 286 640 278 L640 360 L0 360 Z" fill="#f3dfb3" opacity=".72"/>
<path d="M250 282 C300 240 362 242 420 280 C372 294 300 294 250 282 Z" fill="#6d9d67" opacity=".82"/>
<circle cx="524" cy="90" r="42" fill="#f5b45d" opacity=".65"/>
</svg>
