<svg xmlns="http://www.w3.org/2000/svg" viewBox="0 0 640 360" role="img" aria-labelledby="title desc">
  <title id="title">鳴門市をイメージしたビジュアル</title>
  <desc id="desc">渦潮と海峡をテーマにしたDROPTRIP用の旅先固定heroイラストです。</desc>
  <defs>
    <linearGradient id="sky" x1="0" y1="0" x2="1" y2="1">
      <stop offset="0%" stop-color="#2d7fa3"/>
      <stop offset="58%" stop-color="#e7f5f7"/>
      <stop offset="100%" stop-color="#fffaf1"/>
    </linearGradient>
    <style>
      :root { --bg:#2d7fa3; --light:#e7f5f7; --accent:#e9c57a; --dark:#5d6f83; }
    </style>
  </defs>
  <rect width="640" height="360" rx="0" fill="url(#sky)"/>
  <circle cx="92" cy="80" r="74" fill="#fff8ed" opacity=".36"/>
  <circle cx="582" cy="278" r="94" fill="#e9c57a" opacity=".11"/>
  <path d="M338 264 C286 238 226 274 243 314 C260 354 345 353 378 322 C406 296 378 264 338 279 C307 293 324 321 350 309" fill="none" stroke="#f7fbff" stroke-width="10" stroke-linecap="round" opacity=".85"/>
<path d="M108 206 C230 156 410 156 532 206" fill="none" stroke="#edf1ef" stroke-width="14" opacity=".9"/><path d="M122 213 L520 213" stroke="#5b6f80" stroke-width="8" opacity=".7"/>
<path d="M0 284 C88 270 126 300 205 284 C285 267 340 298 420 281 C510 262 560 293 640 275 L640 360 L0 360 Z" fill="#5fa6bd" opacity=".64"/>
<path d="M65 282 C120 245 165 317 220 282 C275 245 318 317 374 282 C430 245 475 317 530 282" fill="none" stroke="#f7fbff" stroke-width="8" stroke-linecap="round" opacity=".8"/>
</svg>
