<svg xmlns="http://www.w3.org/2000/svg" viewBox="0 0 640 360" role="img" aria-labelledby="title desc">
  <title id="title">仙台市をイメージしたビジュアル</title>
  <desc id="desc">杜の都と城跡をテーマにしたDROPTRIP用の旅先固定heroイラストです。</desc>
  <defs>
    <linearGradient id="sky" x1="0" y1="0" x2="1" y2="1">
      <stop offset="0%" stop-color="#5f9375"/>
      <stop offset="58%" stop-color="#eaf1df"/>
      <stop offset="100%" stop-color="#fffaf1"/>
    </linearGradient>
    <style>
      :root { --bg:#5f9375; --light:#eaf1df; --accent:#4d6d8a; --dark:#c88a4a; }
    </style>
  </defs>
  <rect width="640" height="360" rx="0" fill="url(#sky)"/>
  <circle cx="92" cy="80" r="74" fill="#fff8ed" opacity=".36"/>
  <circle cx="582" cy="278" r="94" fill="#4d6d8a" opacity=".11"/>
  <g opacity=".82"><circle cx="118" cy="238" r="48" fill="#5f9a6b"/><circle cx="198" cy="218" r="62" fill="#70a875"/><circle cx="462" cy="230" r="58" fill="#639c73"/></g>
<g opacity=".9"><rect x="388" y="196" width="116" height="90" rx="4" fill="#f1e5cd"/><path d="M370 196 L446 142 L522 196 Z" fill="#5c6070"/><rect x="422" y="225" width="34" height="61" fill="#7c5e52"/><path d="M402 178 L446 142 L490 178" fill="none" stroke="#f6efe4" stroke-width="9"/></g>
<g opacity=".84"><rect x="360" y="190" width="54" height="94" rx="5" fill="#d9c59f"/><rect x="430" y="160" width="64" height="124" rx="5" fill="#9eb5bd"/><rect x="512" y="206" width="48" height="78" rx="5" fill="#dcb17c"/></g>
<ellipse cx="174" cy="276" rx="70" ry="24" fill="#f8ead6" opacity=".9"/><rect x="140" y="260" width="72" height="18" rx="9" fill="#b8754a" opacity=".8"/>
</svg>
