<svg xmlns="http://www.w3.org/2000/svg" viewBox="0 0 640 360" role="img" aria-labelledby="title desc">
  <title>城崎温泉の旅先イメージ</title>
  <desc>城崎温泉の柳並木、外湯めぐり、浴衣散策、川沿いの温泉街をイメージしたビジュアル</desc>
  <title id="title">城崎温泉をイメージしたビジュアル</title>
  <desc id="desc">柳並木と外湯めぐりをテーマにしたDROPTRIP用の旅先固定heroイラストです。</desc>
  <defs>
    <linearGradient id="sky" x1="0" y1="0" x2="1" y2="1">
      <stop offset="0%" stop-color="#8eb0a0"/>
      <stop offset="58%" stop-color="#f3e3cd"/>
      <stop offset="100%" stop-color="#fffaf1"/>
    </linearGradient>
    <style>:root { --bg:#8eb0a0; --light:#f3e3cd; --accent:#6f8f72; --dark:#6c7880; }</style>
  </defs>
  <rect width="640" height="360" fill="url(#sky)"/>
  <circle cx="92" cy="80" r="74" fill="#fff8ed" opacity=".36"/>
  <circle cx="582" cy="278" r="94" fill="#6f8f72" opacity=".11"/>
  <path d="M0 315 C105 275 170 350 275 310 C400 262 475 335 640 292 L640 360 L0 360 Z" fill="#6fa8b8" opacity=".55"/>
<g opacity=".78"><path d="M166 178 C152 230 130 262 112 302" stroke="#6f925f" stroke-width="7" stroke-linecap="round"/><path d="M186 168 C182 228 164 260 148 310" stroke="#6f925f" stroke-width="7" stroke-linecap="round"/><path d="M206 184 C215 238 205 272 190 315" stroke="#6f925f" stroke-width="7" stroke-linecap="round"/><circle cx="184" cy="160" r="42" fill="#75a16a"/></g>
<ellipse cx="198" cy="278" rx="110" ry="44" fill="#69a8ad" opacity=".62"/><g fill="none" stroke="#fff7ed" stroke-width="8" stroke-linecap="round" opacity=".78"><path d="M146 246 C118 218 164 202 142 172"/><path d="M206 244 C178 214 228 200 204 168"/></g>
<g opacity=".85"><rect x="100" y="215" width="82" height="70" rx="5" fill="#f3dec2"/><rect x="205" y="190" width="100" height="95" rx="5" fill="#d7a477"/><rect x="332" y="220" width="78" height="65" rx="5" fill="#ecd0aa"/><path d="M88 215 L141 176 L194 215 Z" fill="var(--accent)"/><path d="M192 190 L255 150 L318 190 Z" fill="var(--dark)"/><path d="M320 220 L371 184 L422 220 Z" fill="var(--accent)"/></g>
</svg>
