<svg xmlns="http://www.w3.org/2000/svg" viewBox="0 0 640 360" role="img" aria-labelledby="title desc">
  <title id="title">川越市をイメージしたビジュアル</title>
  <desc id="desc">蔵造りと時の鐘をテーマにしたDROPTRIP用の旅先固定heroイラストです。</desc>
  <defs>
    <linearGradient id="sky" x1="0" y1="0" x2="1" y2="1">
      <stop offset="0%" stop-color="#8a6a50"/>
      <stop offset="58%" stop-color="#f4e0bd"/>
      <stop offset="100%" stop-color="#fffaf1"/>
    </linearGradient>
    <style>
      :root { --bg:#8a6a50; --light:#f4e0bd; --accent:#475f66; --dark:#c58b4b; }
    </style>
  </defs>
  <rect width="640" height="360" rx="0" fill="url(#sky)"/>
  <circle cx="92" cy="80" r="74" fill="#fff8ed" opacity=".36"/>
  <circle cx="582" cy="278" r="94" fill="#475f66" opacity=".11"/>
  <g opacity=".9"><rect x="125" y="198" width="102" height="86" rx="3" fill="#b36a4e"/><rect x="252" y="186" width="118" height="98" rx="3" fill="#d3a071"/><rect x="398" y="205" width="86" height="79" rx="3" fill="#9a654f"/><path d="M112 198 L176 160 L240 198 Z" fill="#5c5f68"/><path d="M238 186 L311 145 L384 186 Z" fill="#5c5f68"/><path d="M386 205 L441 172 L496 205 Z" fill="#5c5f68"/></g>
<g opacity=".9"><rect x="430" y="142" width="58" height="146" rx="5" fill="#6d5342"/><path d="M408 142 L459 103 L510 142 Z" fill="#3f4f59"/><rect x="444" y="168" width="30" height="42" rx="4" fill="#f4dfb9"/></g>
<path d="M205 360 C236 302 292 260 392 216" fill="none" stroke="#f2d0a7" stroke-width="34" opacity=".52"/>
<g opacity=".9"><circle cx="170" cy="251" r="22" fill="#d68a79"/><circle cx="212" cy="251" r="22" fill="#e0b45f"/><path d="M145 286 L238 286" stroke="#684d3c" stroke-width="8" stroke-linecap="round"/></g>
</svg>
