<svg xmlns="http://www.w3.org/2000/svg" viewBox="0 0 640 360" role="img" aria-labelledby="title desc">
  <title id="title">草津町をイメージしたビジュアル</title>
  <desc id="desc">湯畑と湯けむりをテーマにしたDROPTRIP用の旅先固定heroイラストです。</desc>
  <defs>
    <linearGradient id="sky" x1="0" y1="0" x2="1" y2="1">
      <stop offset="0%" stop-color="#6f8f87"/>
      <stop offset="58%" stop-color="#edf4df"/>
      <stop offset="100%" stop-color="#fffaf1"/>
    </linearGradient>
    <style>
      :root { --bg:#6f8f87; --light:#edf4df; --accent:#b7a86a; --dark:#4e6867; }
    </style>
  </defs>
  <rect width="640" height="360" rx="0" fill="url(#sky)"/>
  <circle cx="92" cy="80" r="74" fill="#fff8ed" opacity=".36"/>
  <circle cx="582" cy="278" r="94" fill="#b7a86a" opacity=".11"/>
  <g opacity=".82"><rect x="128" y="236" width="390" height="54" rx="12" fill="#b5aa6f"/><path d="M150 262 L498 262" stroke="#f4ead1" stroke-width="9" stroke-linecap="round"/><path d="M180 236 L180 290 M250 236 L250 290 M320 236 L320 290 M390 236 L390 290 M460 236 L460 290" stroke="#766f4b" stroke-width="5" opacity=".65"/></g>
<g fill="none" stroke="#fff8f2" stroke-width="10" stroke-linecap="round" opacity=".78"><path d="M138 210 C110 176 158 160 136 125"/><path d="M203 211 C174 178 226 157 198 120"/><path d="M468 216 C442 184 490 162 466 129"/></g>
<g opacity=".8"><path d="M500 162 L500 286" stroke="#3b4550" stroke-width="8"/><circle cx="500" cy="150" r="18" fill="#f6d68a"/><path d="M482 150 C486 124 514 124 518 150" fill="none" stroke="#3b4550" stroke-width="6"/></g>
<g opacity=".82"><rect x="92" y="212" width="72" height="70" rx="4" fill="#fff2d9"/><rect x="184" y="190" width="90" height="92" rx="5" fill="#d8a479"/><rect x="296" y="220" width="72" height="62" rx="4" fill="#f4d8b8"/><path d="M80 212 L128 170 L176 212 Z" fill="var(--accent)"/><path d="M172 190 L229 150 L286 190 Z" fill="var(--dark)"/><path d="M286 220 L332 184 L378 220 Z" fill="var(--accent)"/></g>
</svg>
