<svg xmlns="http://www.w3.org/2000/svg" viewBox="0 0 640 360" role="img" aria-labelledby="title desc">
  <title>札幌市の旅先イメージ</title>
  <desc>札幌市の大通公園、時計台、雪景色、都市と自然をイメージしたビジュアル</desc>
  <title id="title">札幌市をイメージしたビジュアル</title>
  <desc id="desc">公園と雪の都市をテーマにしたDROPTRIP用の旅先固定heroイラストです。</desc>
  <defs>
    <linearGradient id="sky" x1="0" y1="0" x2="1" y2="1">
      <stop offset="0%" stop-color="#c9d9e5"/>
      <stop offset="58%" stop-color="#f7f1df"/>
      <stop offset="100%" stop-color="#fffaf1"/>
    </linearGradient>
    <style>:root { --bg:#c9d9e5; --light:#f7f1df; --accent:#6c9a7b; --dark:#5b7182; }</style>
  </defs>
  <rect width="640" height="360" fill="url(#sky)"/>
  <circle cx="92" cy="80" r="74" fill="#fff8ed" opacity=".36"/>
  <circle cx="582" cy="278" r="94" fill="#6c9a7b" opacity=".11"/>
  <g fill="#ffffff" opacity=".8"><circle cx="118" cy="92" r="5"/><circle cx="208" cy="132" r="4"/><circle cx="430" cy="88" r="5"/><circle cx="538" cy="142" r="4"/><circle cx="330" cy="70" r="3"/></g>
<g opacity=".8"><ellipse cx="160" cy="278" rx="92" ry="35" fill="#6f9965"/><ellipse cx="334" cy="284" rx="132" ry="42" fill="#7da874"/></g>
<g opacity=".85"><rect x="100" y="215" width="82" height="70" rx="5" fill="#f3dec2"/><rect x="205" y="190" width="100" height="95" rx="5" fill="#d7a477"/><rect x="332" y="220" width="78" height="65" rx="5" fill="#ecd0aa"/><path d="M88 215 L141 176 L194 215 Z" fill="var(--accent)"/><path d="M192 190 L255 150 L318 190 Z" fill="var(--dark)"/><path d="M320 220 L371 184 L422 220 Z" fill="var(--accent)"/></g>
<path d="M0 280 C78 198 126 210 190 150 C260 86 328 207 392 154 C470 94 556 190 640 124 L640 360 L0 360 Z" fill="var(--dark)" opacity=".18"/>
</svg>
